<svg width="832" height="519" viewBox="0 0 832 519" fill="none" xmlns="http://www.w3.org/2000/svg">
<g clip-path="url(#clip0_1698_3233)">
<path d="M217.443 316.3C304.86 316.3 375.727 245.494 375.727 158.15C375.727 70.8063 304.86 0 217.443 0C130.025 0 59.1589 70.8063 59.1589 158.15C59.1589 245.494 130.025 316.3 217.443 316.3Z" fill="#F2F2F2"/>
<path d="M0 37.9727C0 95.514 36.1289 142.076 80.7773 142.076L0 37.9727Z" fill="#2F2E41"/>
<path d="M80.7773 142.076C80.7773 83.8876 121.095 36.8027 170.92 36.8027L80.7773 142.076Z" fill="#1E1E1E"/>
<path d="M29.2671 43.189C29.2671 97.8471 52.3058 142.076 80.7773 142.076L29.2671 43.189Z" fill="#1E1E1E"/>
<path d="M80.7773 142.076C80.7773 67.7246 127.378 7.56055 184.968 7.56055L80.7773 142.076Z" fill="#2F2E41"/>
<path d="M63.7839 142.81C63.7839 142.81 75.2395 142.457 78.6919 140.001C82.1443 137.545 96.3134 134.612 97.1699 138.551C98.0263 142.49 114.385 158.144 101.452 158.248C88.5189 158.352 71.401 156.235 67.9553 154.138C64.5095 152.041 63.7839 142.81 63.7839 142.81Z" fill="#A8A8A8"/>
<path opacity="0.2" d="M101.683 156.877C88.7497 156.981 71.6319 154.864 68.1861 152.767C65.5619 151.17 64.5162 145.439 64.1664 142.795C63.9241 142.805 63.7839 142.81 63.7839 142.81C63.7839 142.81 64.5095 152.041 67.9553 154.138C71.4011 156.235 88.5189 158.352 101.452 158.248C105.186 158.218 106.475 156.891 106.404 154.925C105.886 156.113 104.462 156.855 101.683 156.877Z" fill="black"/>
<path d="M147.59 334.076C224.337 334.076 286.553 325.619 286.553 315.187C286.553 304.755 224.337 296.298 147.59 296.298C70.8427 296.298 8.62695 304.755 8.62695 315.187C8.62695 325.619 70.8427 334.076 147.59 334.076Z" fill="#3F3D56"/>
<path opacity="0.1" d="M147.59 331.045C212.024 331.045 264.259 323.945 264.259 315.187C264.259 306.428 212.024 299.328 147.59 299.328C83.155 299.328 30.9204 306.428 30.9204 315.187C30.9204 323.945 83.155 331.045 147.59 331.045Z" fill="black"/>
<path d="M621.698 519C737.845 519 832 506.201 832 490.414C832 474.626 737.845 461.828 621.698 461.828C505.551 461.828 411.396 474.626 411.396 490.414C411.396 506.201 505.551 519 621.698 519Z" fill="#3F3D56"/>
<path d="M230.819 496.448C300.589 496.448 357.149 488.76 357.149 479.277C357.149 469.793 300.589 462.105 230.819 462.105C161.049 462.105 104.489 469.793 104.489 479.277C104.489 488.76 161.049 496.448 230.819 496.448Z" fill="#3F3D56"/>
<path d="M343.772 464.798C410.653 481.875 539.212 442.523 553.331 397.974" stroke="#2F2E41" stroke-width="2" stroke-miterlimit="10"/>
<path d="M230.076 192.305C230.076 192.305 326.681 165.575 332.626 251.704C338.571 337.833 253.112 362.335 319.993 379.412" stroke="#2F2E41" stroke-width="2" stroke-miterlimit="10"/>
<path d="M136.742 398.927C136.742 398.927 165.777 390.894 167.564 416.78C169.351 442.667 143.666 450.031 163.767 455.164" stroke="#2F2E41" stroke-width="2" stroke-miterlimit="10"/>
<path d="M578.668 418.2L572.814 455.543C572.814 455.543 543.995 470.841 564.258 471.291C584.522 471.741 679.986 471.291 679.986 471.291C679.986 471.291 698.449 471.291 669.179 455.093L663.325 415.95L578.668 418.2Z" fill="#2F2E41"/>
<path opacity="0.1" d="M560.182 470.886C564.784 466.794 572.814 462.531 572.814 462.531L578.668 425.187L663.325 425.267L669.179 462.081C676.005 465.858 680.233 468.754 682.707 470.975C686.466 470.118 690.574 466.933 669.179 455.093L663.325 415.95L578.668 418.2L572.814 455.543C572.814 455.543 548.598 468.399 560.182 470.886Z" fill="black"/>
<path d="M797.84 157.919H443.253C435.847 157.919 429.843 163.918 429.843 171.318V409.975C429.843 417.375 435.847 423.374 443.253 423.374H797.84C805.246 423.374 811.25 417.375 811.25 409.975V171.318C811.25 163.918 805.246 157.919 797.84 157.919Z" fill="#2F2E41"/>
<path d="M798.416 172.092H442.677V370.958H798.416V172.092Z" fill="#3F3D56"/>
<path d="M620.546 168.042C621.79 168.042 622.798 167.035 622.798 165.793C622.798 164.55 621.79 163.543 620.546 163.543C619.303 163.543 618.295 164.55 618.295 165.793C618.295 167.035 619.303 168.042 620.546 168.042Z" fill="#F2F2F2"/>
<path d="M811.25 386.705V409.975C811.25 411.735 810.904 413.477 810.23 415.103C809.556 416.729 808.568 418.206 807.323 419.45C806.078 420.694 804.599 421.681 802.972 422.354C801.345 423.028 799.601 423.374 797.84 423.374H443.253C441.492 423.374 439.748 423.028 438.121 422.354C436.494 421.681 435.016 420.694 433.77 419.45C432.525 418.206 431.537 416.729 430.864 415.103C430.19 413.477 429.843 411.735 429.843 409.975V386.705H811.25Z" fill="#2F2E41"/>
<path d="M720.064 495.587V500.086H477.8V496.486L478.134 495.587L484.105 479.389H715.11L720.064 495.587Z" fill="#2F2E41"/>
<path d="M813.294 491.181C812.853 493.067 811.187 495.055 807.422 496.936C793.913 503.685 766.444 495.136 766.444 495.136C766.444 495.136 745.28 491.537 745.28 482.089C745.875 481.682 746.494 481.314 747.136 480.986C752.815 477.984 771.647 470.576 805.037 481.3C807.497 482.071 809.695 483.51 811.384 485.456C812.738 487.038 813.798 489.046 813.294 491.181Z" fill="#2F2E41"/>
<path opacity="0.1" d="M813.294 491.181C796.759 497.512 782.021 497.984 766.895 487.488C759.267 482.196 752.337 480.887 747.136 480.986C752.815 477.984 771.647 470.576 805.038 481.3C807.498 482.071 809.695 483.51 811.385 485.456C812.738 487.038 813.799 489.046 813.294 491.181Z" fill="black"/>
<path d="M792.562 487.488C795.795 487.488 798.416 486.682 798.416 485.688C798.416 484.694 795.795 483.888 792.562 483.888C789.329 483.888 786.708 484.694 786.708 485.688C786.708 486.682 789.329 487.488 792.562 487.488Z" fill="#F2F2F2"/>
<path d="M620.546 413.7C625.272 413.7 629.102 409.873 629.102 405.152C629.102 400.43 625.272 396.603 620.546 396.603C615.821 396.603 611.991 400.43 611.991 405.152C611.991 409.873 615.821 413.7 620.546 413.7Z" fill="#F2F2F2"/>
<path opacity="0.1" d="M720.064 495.586V500.086H477.8V496.486L478.134 495.586H720.064Z" fill="black"/>
<path d="M235.277 118.056H80.7092V297.738H235.277V118.056Z" fill="#2F2E41"/>
<path d="M250.883 100.236H65.1038V164.09H250.883V100.236Z" fill="#3F3D56"/>
<path d="M250.883 175.97H65.1038V239.824H250.883V175.97Z" fill="#3F3D56"/>
<path d="M250.883 251.704H65.1038V315.558H250.883V251.704Z" fill="#3F3D56"/>
<path opacity="0.4" d="M213.727 111.374H201.837V123.253H213.727V111.374Z" fill="#1E1E1E"/>
<path opacity="0.8" d="M230.819 111.374H218.929V123.253H230.819V111.374Z" fill="#1E1E1E"/>
<path d="M247.91 111.374H236.021V123.253H247.91V111.374Z" fill="#1E1E1E"/>
<path opacity="0.4" d="M213.727 186.365H201.837V198.245H213.727V186.365Z" fill="#1E1E1E"/>
<path opacity="0.8" d="M230.819 186.365H218.929V198.245H230.819V186.365Z" fill="#1E1E1E"/>
<path d="M247.91 186.365H236.021V198.245H247.91V186.365Z" fill="#1E1E1E"/>
<path opacity="0.4" d="M213.727 261.356H201.837V273.236H213.727V261.356Z" fill="#1E1E1E"/>
<path opacity="0.8" d="M230.819 261.356H218.929V273.236H230.819V261.356Z" fill="#1E1E1E"/>
<path d="M247.91 261.356H236.021V273.236H247.91V261.356Z" fill="#1E1E1E"/>
<path d="M235.277 458.116C267.7 458.116 293.984 431.855 293.984 399.459C293.984 367.064 267.7 340.803 235.277 340.803C202.855 340.803 176.571 367.064 176.571 399.459C176.571 431.855 202.855 458.116 235.277 458.116Z" fill="#2F2E41"/>
<path d="M226.36 445.494H208.525V477.421H226.36V445.494Z" fill="#2F2E41"/>
<path d="M262.03 445.494H244.195V477.421H262.03V445.494Z" fill="#2F2E41"/>
<path d="M223.387 483.36C231.596 483.36 238.25 480.867 238.25 477.792C238.25 474.716 231.596 472.223 223.387 472.223C215.179 472.223 208.525 474.716 208.525 477.792C208.525 480.867 215.179 483.36 223.387 483.36Z" fill="#2F2E41"/>
<path d="M259.057 482.618C267.265 482.618 273.919 480.125 273.919 477.049C273.919 473.974 267.265 471.48 259.057 471.48C250.849 471.48 244.195 473.974 244.195 477.049C244.195 480.125 250.849 482.618 259.057 482.618Z" fill="#2F2E41"/>
<path d="M236.764 404.656C247.845 404.656 256.828 395.681 256.828 384.609C256.828 373.537 247.845 364.562 236.764 364.562C225.682 364.562 216.699 373.537 216.699 384.609C216.699 395.681 225.682 404.656 236.764 404.656Z" fill="white"/>
<path d="M236.764 391.292C240.457 391.292 243.452 388.3 243.452 384.61C243.452 380.919 240.457 377.927 236.764 377.927C233.07 377.927 230.076 380.919 230.076 384.61C230.076 388.3 233.07 391.292 236.764 391.292Z" fill="#3F3D56"/>
<path d="M178.331 344.91C173.59 323.699 188.743 302.266 212.175 297.038C235.607 291.811 258.445 304.768 263.186 325.979C267.926 347.19 252.397 355.013 228.964 360.241C205.532 365.469 183.071 366.121 178.331 344.91Z" fill="#1E1E1E"/>
<path d="M290.338 387.76C305.242 381.387 315.7 372.431 313.698 367.756C311.695 363.081 297.99 364.458 283.086 370.831C268.183 377.205 257.724 386.161 259.727 390.836C261.729 395.511 275.434 394.134 290.338 387.76Z" fill="#2F2E41"/>
<path d="M180.357 427.112C195.26 420.739 205.719 411.783 203.716 407.108C201.714 402.433 188.009 403.81 173.105 410.184C158.202 416.557 147.743 425.513 149.746 430.188C151.748 434.863 165.453 433.486 180.357 427.112Z" fill="#2F2E41"/>
<path d="M269.461 416.536C269.461 422.277 254.666 433.614 238.25 433.614C221.833 433.614 206.296 423.02 206.296 417.279C206.296 411.538 221.833 412.824 238.25 412.824C254.666 412.824 269.461 410.795 269.461 416.536Z" fill="white"/>
</g>
<defs>
<clipPath id="clip0_1698_3233">
<rect width="832" height="519" fill="white"/>
</clipPath>
</defs>
</svg>
